# xmcd
#
# Track frame offsets: 
#        150
#        19121
#        39837
#        53916
#        68246
#        87436
#        107659
#        125165
#        148225
#        165862
#        184451
#
# Disc length: 2693 seconds
#
# Revision: 0
# Processed by: cddbd v1.5.2PL0 Copyright (c) Steve Scherf et al.
# Submitted via: ExactAudioCopy v0.99pb3
#
DISCID=980a830b
DTITLE=Maria Blom - Ordinary Girl
DYEAR=2005
DGENRE=Country
TTITLE0=Bad News
TTITLE1=Ordinary Girl
TTITLE2=So Good
TTITLE3=Aron's Song
TTITLE4=Enemyland
TTITLE5=A Hymn to Eric Jensen
TTITLE6=Superstar
TTITLE7=Let Go
TTITLE8=Tiptoe to Your Heart
TTITLE9=Something in the Air
TTITLE10=Rainy Day
EXTD=
EXTT0=
EXTT1=
EXTT2=
EXTT3=
EXTT4=
EXTT5=
EXTT6=
EXTT7=
EXTT8=
EXTT9=
EXTT10=
PLAYORDER=
